# xmcd
#
# Track frame offsets:
#	150
#	15301
#	33475
#	48613
#	66684
#	83735
#	100876
#	119773
#	137059
#	155710
#	171979
#	189740
#	210464
#	228101
#
# Disc length: 3268 seconds
#
# Revision: 0
# Processed by: cddbd v1.5.1PL2 Copyright (c) Steve Scherf et al.
# Submitted via: dBpowerAMP V4.0
#
DISCID=c70cc20e
DTITLE=Carrie Underwood - Some Hearts
DYEAR=2005
DGENRE=Country
TTITLE0=Before He Cheats
TTITLE1=Don't Forget To Remember Me
TTITLE2=I Ain't In Checotah Anymore
TTITLE3=I Just Can't Live A Lie
TTITLE4=Inside Your Heaven
TTITLE5=Jesus Take The Wheel
TTITLE6=Lessons Learned
TTITLE7=Some Hearts
TTITLE8=Starts With Goodbye
TTITLE9=That's Where It Is
TTITLE10=The Night Before (Life Goes On)
TTITLE11=Wasted
TTITLE12=We're Young And Beautiful
TTITLE13=Whenever You Remember
EXTD=
EXTT0=
EXTT1=
EXTT2=
EXTT3=
EXTT4=
EXTT5=
EXTT6=
EXTT7=
EXTT8=
EXTT9=
EXTT10=
EXTT11=
EXTT12=
EXTT13=
PLAYORDER=
